<?xml version="1.0" encoding="UTF-8" standalone="no"?>
<!-- Created with Inkscape (http://www.inkscape.org/) -->

<svg
   xmlns:dc="http://purl.org/dc/elements/1.1/"
   xmlns:cc="http://creativecommons.org/ns#"
   xmlns:rdf="http://www.w3.org/1999/02/22-rdf-syntax-ns#"
   xmlns:svg="http://www.w3.org/2000/svg"
   xmlns="http://www.w3.org/2000/svg"
   xmlns:sodipodi="http://sodipodi.sourceforge.net/DTD/sodipodi-0.dtd"
   xmlns:inkscape="http://www.inkscape.org/namespaces/inkscape"
   width="30mm"
   height="30mm"
   viewBox="0 0 30 30"
   version="1.1"
   id="svg219"
   inkscape:version="0.92.5 (2060ec1f9f, 2020-04-08)"
   sodipodi:docname="tiktok_icon_blak.svg">
  <defs
     id="defs213" />
  <sodipodi:namedview
     id="base"
     pagecolor="#ffffff"
     bordercolor="#666666"
     borderopacity="1.0"
     inkscape:pageopacity="0.0"
     inkscape:pageshadow="2"
     inkscape:zoom="1.979899"
     inkscape:cx="95.327906"
     inkscape:cy="-0.52854932"
     inkscape:document-units="mm"
     inkscape:current-layer="layer1"
     showgrid="false"
     fit-margin-top="0"
     fit-margin-left="0"
     fit-margin-right="0"
     fit-margin-bottom="0"
     inkscape:window-width="1366"
     inkscape:window-height="648"
     inkscape:window-x="0"
     inkscape:window-y="27"
     inkscape:window-maximized="1" />
  <metadata
     id="metadata216">
    <rdf:RDF>
      <cc:Work
         rdf:about="">
        <dc:format>image/svg+xml</dc:format>
        <dc:type
           rdf:resource="http://purl.org/dc/dcmitype/StillImage" />
        <dc:title></dc:title>
      </cc:Work>
    </rdf:RDF>
  </metadata>
  <g
     inkscape:label="Capa 1"
     inkscape:groupmode="layer"
     id="layer1"
     transform="translate(-10.78491,-10.953248)">
    <path
       d="m 38.832746,18.258377 c 2.64e-4,-0.135222 -0.0039,-0.140396 -0.145226,-0.139017 -0.341164,0.0031 -0.678523,-0.0376 -1.01382,-0.08831 -1.218381,-0.183862 -5.169844,-2.256697 -5.838374,-5.647608 -0.01349,-0.06623 -0.162466,-0.907577 -0.160745,-1.265985 9.78e-4,-0.160405 -0.002,-0.16075 -0.16006,-0.163164 -0.03657,-6.91e-4 -0.07314,0 -0.109693,0 -1.546089,0 -3.092531,-0.0011 -4.638962,3.45e-4 -0.311497,3.45e-4 -0.26768,-0.03863 -0.26768,0.273894 -9.78e-4,6.70593 -9.78e-4,13.412206 3.32e-4,20.118481 0,0.250092 -0.0068,0.499841 -0.05104,0.745104 -0.233192,1.297376 -0.897918,2.313269 -2.022819,3.006974 -0.974501,0.600912 -2.03248,0.772355 -3.15565,0.550204 -0.353924,-0.07002 -0.686121,-0.203524 -1.01865,-0.335296 -0.02728,-0.02484 -0.05417,-0.04933 -0.08106,-0.07383 -0.111765,-0.09383 -0.234913,-0.171097 -0.354951,-0.254232 -1.431566,-0.991401 -2.110441,-2.367428 -1.903807,-4.08841 0.209724,-1.745818 1.214235,-2.931085 2.86899,-3.541655 0.493626,-0.182137 1.01382,-0.257336 1.541601,-0.229051 0.339785,0.01793 0.678181,0.06106 1.007621,0.154886 0.113828,0.03242 0.175578,-0.0079 0.181445,-0.128669 0.002,-0.04277 0.0029,-0.08521 0.0029,-0.127633 3.32e-4,-1.203894 -0.04488,-3.833488 -0.05104,-3.839352 0.002,-0.34668 0.002,-0.69336 0.0088,-1.039695 0.002,-0.100038 -0.04762,-0.117285 -0.131771,-0.127289 -0.623687,-0.07417 -1.247364,-0.08797 -1.874835,-0.04209 -0.866872,0.06347 -1.706844,0.241124 -2.523348,0.535026 -1.302552,0.46845 -2.445729,1.19251 -3.432649,2.15942 -0.84756,0.830307 -1.513664,1.790318 -2.002118,2.872443 -0.467762,1.035556 -0.735452,2.122854 -0.809268,3.254307 -0.03246,0.490872 -0.02621,0.983468 0.01926,1.476064 0.06278,0.680597 0.191801,1.34636 0.398777,1.996601 0.595046,1.868623 1.676131,3.401603 3.210496,4.61757 0.155914,0.12384 0.305629,0.259407 0.492599,0.339783 v 0 c 0.07832,0.06934 0.156609,0.139016 0.234913,0.208352 0.248368,0.18731 0.514327,0.347371 0.792362,0.484661 1.718568,0.848937 3.528886,1.193892 5.437182,0.961047 2.475748,-0.302526 4.538579,-1.399483 6.162279,-3.289839 1.528498,-1.779279 2.271186,-3.867983 2.284641,-6.20264 0.01936,-3.339857 0.0049,-6.679714 0.0068,-10.019571 0,-0.07968 -0.04586,-0.19283 0.04205,-0.232845 0.06864,-0.03139 0.137639,0.05968 0.202146,0.102107 1.243218,0.816509 2.583368,1.406728 4.03494,1.73892 0.844793,0.193174 1.69822,0.310459 2.567155,0.30908 0.274241,-3.37e-4 0.31046,-0.01415 0.310812,-0.285623 0.002,-1.186302 -0.06072,-4.428536 -0.06033,-4.743481"
       style="fill:#000000;fill-opacity:1;fill-rule:nonzero;stroke:none;stroke-width:0.03449553"
       id="path170"
       inkscape:connector-curvature="0" />
  </g>
</svg>
