<?xml version="1.0" encoding="UTF-8" standalone="no"?>
<!-- Created with Inkscape (http://www.inkscape.org/) -->

<svg
   xmlns:dc="http://purl.org/dc/elements/1.1/"
   xmlns:cc="http://creativecommons.org/ns#"
   xmlns:rdf="http://www.w3.org/1999/02/22-rdf-syntax-ns#"
   xmlns:svg="http://www.w3.org/2000/svg"
   xmlns="http://www.w3.org/2000/svg"
   xmlns:sodipodi="http://sodipodi.sourceforge.net/DTD/sodipodi-0.dtd"
   xmlns:inkscape="http://www.inkscape.org/namespaces/inkscape"
   width="33.255825mm"
   height="10.583333mm"
   viewBox="0 0 33.255825 10.583333"
   version="1.1"
   id="svg7949"
   inkscape:version="0.92.5 (2060ec1f9f, 2020-04-08)"
   sodipodi:docname="brand_white.svg">
  <defs
     id="defs7943" />
  <sodipodi:namedview
     id="base"
     pagecolor="#ffffff"
     bordercolor="#666666"
     borderopacity="1.0"
     inkscape:pageopacity="0.0"
     inkscape:pageshadow="2"
     inkscape:zoom="3.959798"
     inkscape:cx="-16.193497"
     inkscape:cy="-1.2588601"
     inkscape:document-units="mm"
     inkscape:current-layer="g74"
     showgrid="false"
     fit-margin-top="0"
     fit-margin-left="0"
     fit-margin-right="0"
     fit-margin-bottom="0"
     inkscape:window-width="1920"
     inkscape:window-height="987"
     inkscape:window-x="1366"
     inkscape:window-y="0"
     inkscape:window-maximized="1" />
  <metadata
     id="metadata7946">
    <rdf:RDF>
      <cc:Work
         rdf:about="">
        <dc:format>image/svg+xml</dc:format>
        <dc:type
           rdf:resource="http://purl.org/dc/dcmitype/StillImage" />
        <dc:title />
      </cc:Work>
    </rdf:RDF>
  </metadata>
  <g
     inkscape:label="Capa 1"
     inkscape:groupmode="layer"
     id="layer1"
     transform="translate(-39.593007,-74.985839)">
    <g
       style="display:inline"
       id="g102178-7-7"
       transform="matrix(0.6025411,0,0,0.6025411,-59.547209,-40.239132)">
      <g
         aria-label="DEVELOPERS BUILD ASAP"
         style="font-style:normal;font-variant:normal;font-weight:bold;font-stretch:normal;font-size:2.39430404px;line-height:1.25;font-family:Altis-Bold;-inkscape-font-specification:'Altis-Bold, Bold';font-variant-ligatures:normal;font-variant-caps:normal;font-variant-numeric:normal;font-feature-settings:normal;text-align:start;writing-mode:lr-tb;text-anchor:start;display:inline;opacity:1;fill:#666666;fill-opacity:1;fill-rule:evenodd;stroke:#ff0001;stroke-width:0.02584551;stroke-linecap:butt;stroke-miterlimit:10;stroke-dasharray:none;stroke-dashoffset:0;stroke-opacity:1;paint-order:normal"
         id="text2166-3-7-9-3-6-0-1-2-4-5-8-3-7-2-9-2-4-5-9-4">
        <g
           id="g74"
           transform="matrix(1.3230664,0,0,1.3230664,-53.156326,-67.455043)">
          <g
             id="g1693"
             transform="matrix(0.30005563,0,0,0.30005563,137.45799,135.76072)"
             style="stroke-width:0.08613573">
            <g
               id="flowRoot2743-0-5-6-7-66-8-6-5-5-6-2-9-1-8-4-8-6"
               style="font-style:normal;font-variant:normal;font-weight:normal;font-stretch:normal;font-size:48px;line-height:1.25;font-family:sans-serif;-inkscape-font-specification:'sans-serif, Normal';font-variant-ligatures:normal;font-variant-caps:normal;font-variant-numeric:normal;font-feature-settings:normal;text-align:justify;letter-spacing:0px;word-spacing:0px;writing-mode:lr-tb;text-anchor:start;display:inline;opacity:1;vector-effect:none;fill:#ffffff;fill-opacity:1;stroke:none;stroke-width:1.88120627;stroke-linecap:round;stroke-linejoin:round;stroke-miterlimit:4;stroke-dasharray:none;stroke-dashoffset:0;stroke-opacity:1;paint-order:normal"
               transform="matrix(0.44370271,0,0,0.44519954,2580.4416,2494.1957)"
               aria-label="LA GRÃFICA">
              <path
                 id="path6421"
                 style="font-style:normal;font-variant:normal;font-weight:800;font-stretch:semi-condensed;font-family:'Barlow Semi Condensed';-inkscape-font-specification:'Barlow Semi Condensed, Ultra-Bold Semi-Condensed';text-align:justify;text-anchor:start;fill:#ffffff;fill-opacity:1;stroke-width:1.15238905"
                 d="m -5529.8826,-5090.2324 q -0.24,0 -0.432,-0.144 -0.144,-0.192 -0.144,-0.432 v -32.448 q 0,-0.24 0.144,-0.384 0.192,-0.192 0.432,-0.192 h 6.816 q 0.24,0 0.384,0.192 0.192,0.144 0.192,0.384 v 25.968 q 0,0.24 0.24,0.24 h 12.576 q 0.24,0 0.384,0.192 0.192,0.144 0.192,0.384 v 5.664 q 0,0.24 -0.192,0.432 -0.144,0.144 -0.384,0.144 z"
                 inkscape:connector-curvature="0" />
              <path
                 id="path6423"
                 style="font-style:normal;font-variant:normal;font-weight:800;font-stretch:semi-condensed;font-family:'Barlow Semi Condensed';-inkscape-font-specification:'Barlow Semi Condensed, Ultra-Bold Semi-Condensed';text-align:justify;text-anchor:start;fill:#ffffff;fill-opacity:1;stroke-width:1.15238905"
                 d="m -5487.5947,-5090.2324 q -0.528,0 -0.624,-0.528 l -0.96,-4.224 q -0.048,-0.192 -0.24,-0.192 h -8.112 q -0.192,0 -0.24,0.192 l -0.96,4.224 q -0.096,0.528 -0.624,0.528 h -7.056 q -0.624,0 -0.48,-0.624 l 8.592,-32.496 q 0.144,-0.48 0.672,-0.48 h 8.4 q 0.528,0 0.672,0.48 l 8.592,32.496 0.048,0.192 q 0,0.432 -0.528,0.432 z m -8.736,-11.328 q -0.048,0.24 0.24,0.24 h 5.136 q 0.096,0 0.192,-0.048 0.096,-0.096 0.048,-0.24 l -2.688,-11.904 q -0.048,-0.192 -0.144,-0.192 -0.096,0 -0.144,0.192 z"
                 inkscape:connector-curvature="0" />
              <path
                 id="path6425"
                 style="font-style:normal;font-variant:normal;font-weight:800;font-stretch:semi-condensed;font-family:'Barlow Semi Condensed';-inkscape-font-specification:'Barlow Semi Condensed, Ultra-Bold Semi-Condensed';text-align:justify;text-anchor:start;fill:#ffffff;fill-opacity:1;stroke-width:1.15238905"
                 d="m -5456.3947,-5089.8484 q -3.408,0 -6,-1.344 -2.592,-1.344 -4.032,-3.792 -1.44,-2.496 -1.44,-5.712 v -12.672 q 0,-3.264 1.44,-5.712 1.44,-2.448 4.032,-3.792 2.592,-1.344 6,-1.344 3.36,0 5.952,1.344 2.64,1.296 4.08,3.648 1.44,2.304 1.44,5.28 v 1.008 q 0,0.24 -0.192,0.432 -0.144,0.144 -0.384,0.144 h -6.816 q -0.24,0 -0.432,-0.144 -0.144,-0.192 -0.144,-0.432 v -0.912 q 0,-1.536 -0.96,-2.544 -0.912,-1.008 -2.544,-1.008 -1.584,0 -2.544,1.104 -0.96,1.056 -0.96,2.784 v 12.96 q 0,1.728 1.056,2.832 1.056,1.056 2.64,1.056 1.536,0 2.448,-0.912 0.96,-0.96 0.96,-2.544 v -2.208 q 0,-0.24 -0.24,-0.24 h -3.072 q -0.24,0 -0.432,-0.144 -0.144,-0.192 -0.144,-0.432 v -5.184 q 0,-0.24 0.144,-0.384 0.192,-0.192 0.432,-0.192 h 10.608 q 0.24,0 0.384,0.192 0.192,0.144 0.192,0.384 v 7.728 q 0,3.216 -1.44,5.664 -1.44,2.448 -4.032,3.792 -2.592,1.296 -6,1.296 z"
                 inkscape:connector-curvature="0" />
              <path
                 id="path6427"
                 style="font-style:normal;font-variant:normal;font-weight:800;font-stretch:semi-condensed;font-family:'Barlow Semi Condensed';-inkscape-font-specification:'Barlow Semi Condensed, Ultra-Bold Semi-Condensed';text-align:justify;text-anchor:start;fill:#ffffff;fill-opacity:1;stroke-width:1.15238905"
                 d="m -5425.8667,-5090.2324 q -0.48,0 -0.624,-0.48 l -4.512,-12.72 q -0.096,-0.192 -0.24,-0.192 h -1.92 q -0.24,0 -0.24,0.24 v 12.576 q 0,0.24 -0.192,0.432 -0.144,0.144 -0.384,0.144 h -6.816 q -0.24,0 -0.432,-0.144 -0.144,-0.192 -0.144,-0.432 v -32.448 q 0,-0.24 0.144,-0.384 0.192,-0.192 0.432,-0.192 h 12.288 q 2.976,0 5.232,1.344 2.304,1.296 3.552,3.648 1.248,2.352 1.248,5.424 0,3.024 -1.296,5.28 -1.296,2.256 -3.6,3.408 -0.192,0.048 -0.096,0.288 l 5.232,13.536 q 0.048,0.096 0.048,0.24 0,0.432 -0.528,0.432 z m -7.296,-26.784 q -0.24,0 -0.24,0.24 v 6.816 q 0,0.24 0.24,0.24 h 3.36 q 1.536,0 2.448,-0.96 0.96,-0.96 0.96,-2.64 0,-1.728 -0.96,-2.688 -0.912,-1.008 -2.448,-1.008 z"
                 inkscape:connector-curvature="0" />
              <path
                 id="path6429"
                 style="font-style:normal;font-variant:normal;font-weight:800;font-stretch:semi-condensed;font-family:'Barlow Semi Condensed';-inkscape-font-specification:'Barlow Semi Condensed, Ultra-Bold Semi-Condensed';text-align:justify;text-anchor:start;fill:#ffffff;fill-opacity:1;stroke-width:1.15238905"
                 d="m -5396.5869,-5090.2324 q -0.528,0 -0.624,-0.528 l -0.96,-4.224 q -0.048,-0.192 -0.24,-0.192 h -8.112 q -0.192,0 -0.24,0.192 l -0.96,4.224 q -0.096,0.528 -0.624,0.528 h -7.056 q -0.624,0 -0.48,-0.624 l 8.592,-32.496 q 0.144,-0.48 0.672,-0.48 h 8.4 q 0.528,0 0.672,0.48 l 8.592,32.496 0.048,0.192 q 0,0.432 -0.528,0.432 z m -8.736,-11.328 q -0.048,0.24 0.24,0.24 h 5.136 q 0.096,0 0.192,-0.048 0.096,-0.096 0.048,-0.24 l -2.688,-11.904 q -0.048,-0.192 -0.144,-0.192 -0.096,0 -0.144,0.192 z m -0.192,-25.2 q -0.336,0 -0.432,-0.192 -0.096,-0.192 0.048,-0.48 l 2.688,-4.8 q 0.24,-0.384 0.72,-0.384 h 5.616 q 0.48,0 0.48,0.336 0,0.144 -0.144,0.384 l -3.648,4.8 q -0.288,0.336 -0.672,0.336 z"
                 inkscape:connector-curvature="0" />
              <path
                 id="path6431"
                 style="font-style:normal;font-variant:normal;font-weight:800;font-stretch:semi-condensed;font-family:'Barlow Semi Condensed';-inkscape-font-specification:'Barlow Semi Condensed, Ultra-Bold Semi-Condensed';text-align:justify;text-anchor:start;fill:#ffffff;fill-opacity:1;stroke-width:1.15238905"
                 d="m -5364.8589,-5117.5924 q 0,0.24 -0.192,0.432 -0.144,0.144 -0.384,0.144 h -12.336 q -0.24,0 -0.24,0.24 v 6 q 0,0.24 0.24,0.24 h 7.44 q 0.24,0 0.384,0.192 0.192,0.144 0.192,0.384 v 5.664 q 0,0.24 -0.192,0.432 -0.144,0.144 -0.384,0.144 h -7.44 q -0.24,0 -0.24,0.24 v 12.672 q 0,0.24 -0.192,0.432 -0.144,0.144 -0.384,0.144 h -6.816 q -0.24,0 -0.432,-0.144 -0.144,-0.192 -0.144,-0.432 v -32.448 q 0,-0.24 0.144,-0.384 0.192,-0.192 0.432,-0.192 h 19.968 q 0.24,0 0.384,0.192 0.192,0.144 0.192,0.384 z"
                 inkscape:connector-curvature="0" />
              <path
                 id="path6433"
                 style="font-style:normal;font-variant:normal;font-weight:800;font-stretch:semi-condensed;font-family:'Barlow Semi Condensed';-inkscape-font-specification:'Barlow Semi Condensed, Ultra-Bold Semi-Condensed';text-align:justify;text-anchor:start;fill:#ffffff;fill-opacity:1;stroke-width:1.15238905"
                 d="m -5361.7869,-5090.2324 q -0.24,0 -0.432,-0.144 -0.144,-0.192 -0.144,-0.432 v -32.448 q 0,-0.24 0.144,-0.384 0.192,-0.192 0.432,-0.192 h 6.816 q 0.24,0 0.384,0.192 0.192,0.144 0.192,0.384 v 32.448 q 0,0.24 -0.192,0.432 -0.144,0.144 -0.384,0.144 z"
                 inkscape:connector-curvature="0" />
              <path
                 id="path6435"
                 style="font-style:normal;font-variant:normal;font-weight:800;font-stretch:semi-condensed;font-family:'Barlow Semi Condensed';-inkscape-font-specification:'Barlow Semi Condensed, Ultra-Bold Semi-Condensed';text-align:justify;text-anchor:start;fill:#ffffff;fill-opacity:1;stroke-width:1.15238905"
                 d="m -5339.371,-5089.8484 q -3.408,0 -6.048,-1.344 -2.592,-1.344 -4.032,-3.84 -1.392,-2.496 -1.392,-5.76 v -12.576 q 0,-3.264 1.392,-5.712 1.44,-2.448 4.032,-3.792 2.64,-1.344 6.048,-1.344 3.408,0 6,1.296 2.64,1.296 4.032,3.696 1.44,2.4 1.44,5.568 v 0.192 q 0,0.24 -0.192,0.432 -0.144,0.192 -0.384,0.192 l -6.816,0.288 q -0.576,0 -0.576,-0.528 v -0.672 q 0,-1.632 -0.96,-2.64 -0.96,-1.008 -2.544,-1.008 -1.584,0 -2.544,1.008 -0.96,1.008 -0.96,2.64 v 13.44 q 0,1.632 0.96,2.64 0.96,1.008 2.544,1.008 1.584,0 2.544,-1.008 0.96,-1.008 0.96,-2.64 v -0.672 q 0,-0.528 0.576,-0.528 l 6.816,0.288 q 0.24,0 0.384,0.192 0.192,0.192 0.192,0.432 v 0.096 q 0,3.168 -1.44,5.616 -1.392,2.4 -4.032,3.744 -2.592,1.296 -6,1.296 z"
                 inkscape:connector-curvature="0" />
              <path
                 id="path6437"
                 style="font-style:normal;font-variant:normal;font-weight:800;font-stretch:semi-condensed;font-family:'Barlow Semi Condensed';-inkscape-font-specification:'Barlow Semi Condensed, Ultra-Bold Semi-Condensed';text-align:justify;text-anchor:start;fill:#ffffff;fill-opacity:1;stroke-width:1.15238905"
                 d="m -5307.0671,-5090.2324 q -0.528,0 -0.624,-0.528 l -0.96,-4.224 q -0.048,-0.192 -0.24,-0.192 h -8.112 q -0.192,0 -0.24,0.192 l -0.96,4.224 q -0.096,0.528 -0.624,0.528 h -7.056 q -0.624,0 -0.48,-0.624 l 8.592,-32.496 q 0.144,-0.48 0.672,-0.48 h 8.4 q 0.528,0 0.672,0.48 l 8.592,32.496 0.048,0.192 q 0,0.432 -0.528,0.432 z m -8.736,-11.328 q -0.048,0.24 0.24,0.24 h 5.136 q 0.096,0 0.192,-0.048 0.096,-0.096 0.048,-0.24 l -2.688,-11.904 q -0.048,-0.192 -0.144,-0.192 -0.096,0 -0.144,0.192 z"
                 inkscape:connector-curvature="0" />
            </g>
            <g
               id="flowRoot1365-7-1-9-7-4-7-7-5-7-5"
               style="font-style:normal;font-variant:normal;font-weight:normal;font-stretch:normal;font-size:28px;line-height:1.25;font-family:sans-serif;-inkscape-font-specification:'sans-serif, Normal';font-variant-ligatures:normal;font-variant-caps:normal;font-variant-numeric:normal;font-feature-settings:normal;text-align:start;letter-spacing:0px;word-spacing:0px;writing-mode:lr-tb;text-anchor:start;display:inline;opacity:1;vector-effect:none;fill:#ffffff;fill-opacity:1;stroke:none;stroke-width:3.32652569;stroke-linecap:round;stroke-linejoin:round;stroke-miterlimit:4;stroke-dasharray:none;stroke-dashoffset:0;stroke-opacity:1;paint-order:normal"
               transform="matrix(0.25134429,0,0,0.25134429,353.66158,34.424524)"
               aria-label="MARKETING &amp; PUBLICIDAD">
              <path
                 id="path6380"
                 style="font-style:normal;font-variant:normal;font-weight:500;font-stretch:normal;font-family:Barlow;-inkscape-font-specification:'Barlow Medium';letter-spacing:3.99681807px;fill:#ffffff;stroke-width:3.32652569"
                 d="m -891.53172,785.55954 q 0.14,-0.168 0.336,-0.168 h 2.128 q 0.28,0 0.28,0.28 v 19.04 q 0,0.28 -0.28,0.28 h -2.128 q -0.28,0 -0.28,-0.28 v -14.336 q 0,-0.084 -0.056,-0.112 -0.056,-0.028 -0.084,0.056 l -4.004,6.104 q -0.112,0.168 -0.336,0.168 h -1.064 q -0.196,0 -0.336,-0.168 l -4.032,-6.048 q -0.028,-0.084 -0.084,-0.056 -0.056,0.028 -0.056,0.112 v 14.28 q 0,0.28 -0.28,0.28 h -2.128 q -0.28,0 -0.28,-0.28 v -19.04 q 0,-0.28 0.28,-0.28 h 2.128 q 0.224,0 0.336,0.168 l 4.9,7.336 q 0.028,0.028 0.084,0.028 0.056,0 0.084,-0.028 z"
                 inkscape:connector-curvature="0" />
              <path
                 id="path6382"
                 style="font-style:normal;font-variant:normal;font-weight:500;font-stretch:normal;font-family:Barlow;-inkscape-font-specification:'Barlow Medium';letter-spacing:3.99681807px;fill:#ffffff;stroke-width:3.32652569"
                 d="m -868.29895,804.99154 q -0.252,0 -0.336,-0.224 l -1.008,-3.276 q -0.028,-0.084 -0.112,-0.084 h -7.868 q -0.084,0 -0.112,0.084 l -1.008,3.276 q -0.084,0.224 -0.336,0.224 h -2.268 q -0.308,0 -0.224,-0.308 l 6.132,-19.068 q 0.084,-0.224 0.336,-0.224 h 2.8 q 0.252,0 0.336,0.224 l 6.188,19.068 0.028,0.112 q 0,0.196 -0.252,0.196 z m -8.736,-5.852 q -0.028,0.056 0,0.112 0.056,0.028 0.112,0.028 h 6.44 q 0.056,0 0.084,-0.028 0.056,-0.056 0.028,-0.112 l -3.248,-10.388 q -0.028,-0.056 -0.084,-0.056 -0.056,0 -0.084,0.056 z"
                 inkscape:connector-curvature="0" />
              <path
                 id="path6384"
                 style="font-style:normal;font-variant:normal;font-weight:500;font-stretch:normal;font-family:Barlow;-inkscape-font-specification:'Barlow Medium';letter-spacing:3.99681807px;fill:#ffffff;stroke-width:3.32652569"
                 d="m -847.39015,804.99154 q -0.224,0 -0.308,-0.196 l -3.92,-8.372 q -0.028,-0.084 -0.112,-0.084 h -4.032 q -0.112,0 -0.112,0.112 v 8.26 q 0,0.28 -0.28,0.28 h -2.128 q -0.28,0 -0.28,-0.28 v -19.04 q 0,-0.28 0.28,-0.28 h 7.532 q 1.68,0 2.94,0.7 1.288,0.7 1.988,1.96 0.7,1.26 0.7,2.912 0,1.96 -1.036,3.332 -1.008,1.344 -2.828,1.82 -0.112,0.056 -0.056,0.14 l 4.06,8.4 q 0.028,0.056 0.028,0.14 0,0.196 -0.224,0.196 z m -8.372,-17.276 q -0.112,0 -0.112,0.112 v 6.272 q 0,0.112 0.112,0.112 h 4.676 q 1.484,0 2.38,-0.868 0.896,-0.896 0.896,-2.352 0,-1.484 -0.896,-2.38 -0.896,-0.896 -2.38,-0.896 z"
                 inkscape:connector-curvature="0" />
              <path
                 id="path6386"
                 style="font-style:normal;font-variant:normal;font-weight:500;font-stretch:normal;font-family:Barlow;-inkscape-font-specification:'Barlow Medium';letter-spacing:3.99681807px;fill:#ffffff;stroke-width:3.32652569"
                 d="m -837.12136,804.99154 q -0.28,0 -0.28,-0.28 v -19.04 q 0,-0.28 0.28,-0.28 h 2.128 q 0.28,0 0.28,0.28 v 8.932 q 0,0.056 0.056,0.084 0.056,0 0.084,-0.056 l 8.008,-9.072 q 0.112,-0.168 0.336,-0.168 h 2.436 q 0.168,0 0.224,0.112 0.056,0.084 -0.056,0.224 l -6.664,7.868 q -0.028,0.084 0,0.168 l 7.14,10.892 q 0.056,0.112 0.056,0.168 0,0.168 -0.224,0.168 h -2.436 q -0.196,0 -0.336,-0.168 l -6.048,-9.156 q -0.028,-0.056 -0.084,-0.056 -0.056,0 -0.084,0.028 l -2.352,2.632 q -0.056,0.112 -0.056,0.14 v 6.3 q 0,0.28 -0.28,0.28 z"
                 inkscape:connector-curvature="0" />
              <path
                 id="path6388"
                 style="font-style:normal;font-variant:normal;font-weight:500;font-stretch:normal;font-family:Barlow;-inkscape-font-specification:'Barlow Medium';letter-spacing:3.99681807px;fill:#ffffff;stroke-width:3.32652569"
                 d="m -803.13657,787.43554 q 0,0.28 -0.28,0.28 h -9.94 q -0.112,0 -0.112,0.112 v 6.02 q 0,0.112 0.112,0.112 h 6.832 q 0.28,0 0.28,0.28 v 1.764 q 0,0.28 -0.28,0.28 h -6.832 q -0.112,0 -0.112,0.112 v 6.16 q 0,0.112 0.112,0.112 h 9.94 q 0.28,0 0.28,0.28 v 1.764 q 0,0.28 -0.28,0.28 h -12.46 q -0.28,0 -0.28,-0.28 v -19.04 q 0,-0.28 0.28,-0.28 h 12.46 q 0.28,0 0.28,0.28 z"
                 inkscape:connector-curvature="0" />
              <path
                 id="path6390"
                 style="font-style:normal;font-variant:normal;font-weight:500;font-stretch:normal;font-family:Barlow;-inkscape-font-specification:'Barlow Medium';letter-spacing:3.99681807px;fill:#ffffff;stroke-width:3.32652569"
                 d="m -782.95576,785.39154 q 0.28,0 0.28,0.28 v 1.792 q 0,0.28 -0.28,0.28 h -5.376 q -0.112,0 -0.112,0.112 v 16.856 q 0,0.28 -0.28,0.28 h -2.128 q -0.28,0 -0.28,-0.28 v -16.856 q 0,-0.112 -0.112,-0.112 h -5.124 q -0.28,0 -0.28,-0.28 v -1.792 q 0,-0.28 0.28,-0.28 z"
                 inkscape:connector-curvature="0" />
              <path
                 id="path6392"
                 style="font-style:normal;font-variant:normal;font-weight:500;font-stretch:normal;font-family:Barlow;-inkscape-font-specification:'Barlow Medium';letter-spacing:3.99681807px;fill:#ffffff;stroke-width:3.32652569"
                 d="m -775.06696,804.99154 q -0.28,0 -0.28,-0.28 v -19.04 q 0,-0.28 0.28,-0.28 h 2.128 q 0.28,0 0.28,0.28 v 19.04 q 0,0.28 -0.28,0.28 z"
                 inkscape:connector-curvature="0" />
              <path
                 id="path6394"
                 style="font-style:normal;font-variant:normal;font-weight:500;font-stretch:normal;font-family:Barlow;-inkscape-font-specification:'Barlow Medium';letter-spacing:3.99681807px;fill:#ffffff;stroke-width:3.32652569"
                 d="m -752.5342,785.67154 q 0,-0.28 0.28,-0.28 h 2.128 q 0.28,0 0.28,0.28 v 19.04 q 0,0.28 -0.28,0.28 h -2.044 q -0.196,0 -0.336,-0.196 l -8.764,-14.308 q -0.028,-0.084 -0.084,-0.056 -0.056,0 -0.056,0.084 l 0.028,14.196 q 0,0.28 -0.28,0.28 h -2.128 q -0.28,0 -0.28,-0.28 v -19.04 q 0,-0.28 0.28,-0.28 h 2.072 q 0.196,0 0.336,0.196 l 8.736,14.308 q 0.028,0.084 0.084,0.084 0.056,-0.028 0.056,-0.112 z"
                 inkscape:connector-curvature="0" />
              <path
                 id="path6396"
                 style="font-style:normal;font-variant:normal;font-weight:500;font-stretch:normal;font-family:Barlow;-inkscape-font-specification:'Barlow Medium';letter-spacing:3.99681807px;fill:#ffffff;stroke-width:3.32652569"
                 d="m -734.92942,805.21554 q -2.016,0 -3.584,-0.784 -1.54,-0.812 -2.408,-2.268 -0.84,-1.484 -0.84,-3.388 v -7.168 q 0,-1.932 0.84,-3.388 0.868,-1.456 2.408,-2.24 1.568,-0.812 3.584,-0.812 2.016,0 3.556,0.784 1.54,0.784 2.38,2.184 0.868,1.372 0.868,3.108 v 0.308 q 0,0.28 -0.28,0.28 h -2.128 q -0.28,0 -0.28,-0.28 v -0.252 q 0,-1.68 -1.148,-2.716 -1.12,-1.064 -2.968,-1.064 -1.876,0 -3.024,1.092 -1.12,1.092 -1.12,2.912 v 7.336 q 0,1.82 1.176,2.912 1.176,1.092 3.08,1.092 1.848,0 2.912,-0.952 1.092,-0.98 1.092,-2.66 v -2.156 q 0,-0.112 -0.112,-0.112 h -3.78 q -0.28,0 -0.28,-0.28 v -1.736 q 0,-0.28 0.28,-0.28 h 6.3 q 0.28,0 0.28,0.28 v 3.556 q 0,3.22 -1.848,4.956 -1.82,1.736 -4.956,1.736 z"
                 inkscape:connector-curvature="0" />
              <path
                 id="path6398"
                 style="font-style:normal;font-variant:normal;font-weight:500;font-stretch:normal;font-family:Barlow;-inkscape-font-specification:'Barlow Medium';letter-spacing:3.99681807px;fill:#ffffff;stroke-width:3.32652569"
                 d="m -695.54784,804.65554 q 0.084,0.084 0.084,0.168 0,0.168 -0.224,0.168 h -2.408 q -0.196,0 -0.336,-0.168 l -1.428,-1.624 q -0.056,-0.084 -0.168,-0.028 -1.316,1.064 -2.716,1.568 -1.4,0.476 -2.968,0.476 -2.52,0 -4.144,-1.176 -1.596,-1.204 -1.596,-3.5 0,-1.932 1.064,-3.248 1.092,-1.344 2.968,-2.576 0.112,-0.056 0.028,-0.14 -1.568,-1.904 -2.072,-2.884 -0.504,-1.008 -0.504,-2.072 0,-1.26 0.616,-2.268 0.644,-1.036 1.792,-1.596 1.176,-0.588 2.66,-0.588 2.296,0 3.78,1.26 1.484,1.26 1.484,3.304 0,1.708 -1.036,2.996 -1.008,1.26 -2.8,2.464 -0.112,0.028 -0.028,0.14 1.064,1.288 3.5,4.06 l 0.112,0.14 q 0.028,0.056 0.084,0.056 0.056,0 0.084,-0.028 1.232,-1.54 1.82,-2.38 0.14,-0.224 0.364,-0.084 l 1.596,0.896 q 0.252,0.14 0.084,0.392 -1.232,1.876 -2.324,3.024 v 0.056 q 0,0.056 0.084,0.196 0.98,1.176 2.548,2.996 z m -9.268,-17.024 q -1.12,0 -1.792,0.616 -0.672,0.588 -0.672,1.596 0,0.56 0.364,1.232 0.392,0.644 1.624,2.184 0.084,0.084 0.168,0.028 1.372,-0.896 2.072,-1.708 0.728,-0.812 0.728,-1.792 0,-0.98 -0.7,-1.568 -0.7,-0.588 -1.792,-0.588 z m -0.868,15.288 q 1.988,0 4.06,-1.54 0.084,-0.084 0,-0.168 l -0.952,-1.148 q -0.84,-0.952 -1.008,-1.12 l -2.044,-2.296 q -0.028,-0.084 -0.14,-0.028 -1.456,0.952 -2.212,1.848 -0.756,0.896 -0.756,2.044 0,1.12 0.812,1.764 0.84,0.644 2.24,0.644 z"
                 inkscape:connector-curvature="0" />
              <path
                 id="path6400"
                 style="font-style:normal;font-variant:normal;font-weight:500;font-stretch:normal;font-family:Barlow;-inkscape-font-specification:'Barlow Medium';letter-spacing:3.99681807px;fill:#ffffff;stroke-width:3.32652569"
                 d="m -670.30626,785.36354 q 1.708,0 2.996,0.728 1.316,0.7 2.016,1.988 0.728,1.288 0.728,2.968 0,1.68 -0.728,2.94 -0.728,1.26 -2.072,1.96 -1.316,0.7 -3.052,0.7 h -4.928 q -0.112,0 -0.112,0.112 v 7.952 q 0,0.28 -0.28,0.28 h -2.128 q -0.28,0 -0.28,-0.28 v -19.068 q 0,-0.28 0.28,-0.28 z m -0.364,9.1 q 1.54,0 2.464,-0.924 0.952,-0.924 0.952,-2.436 0,-1.54 -0.952,-2.464 -0.924,-0.952 -2.464,-0.952 h -4.676 q -0.112,0 -0.112,0.112 v 6.552 q 0,0.112 0.112,0.112 z"
                 inkscape:connector-curvature="0" />
              <path
                 id="path6402"
                 style="font-style:normal;font-variant:normal;font-weight:500;font-stretch:normal;font-family:Barlow;-inkscape-font-specification:'Barlow Medium';letter-spacing:3.99681807px;fill:#ffffff;stroke-width:3.32652569"
                 d="m -650.68548,805.21554 q -2.044,0 -3.612,-0.784 -1.54,-0.812 -2.408,-2.268 -0.868,-1.484 -0.868,-3.388 v -13.104 q 0,-0.28 0.28,-0.28 h 2.128 q 0.28,0 0.28,0.28 v 13.16 q 0,1.82 1.148,2.94 1.176,1.12 3.052,1.12 1.876,0 3.024,-1.12 1.148,-1.12 1.148,-2.94 v -13.16 q 0,-0.28 0.28,-0.28 h 2.128 q 0.28,0 0.28,0.28 v 13.104 q 0,1.904 -0.868,3.388 -0.84,1.456 -2.408,2.268 -1.54,0.784 -3.584,0.784 z"
                 inkscape:connector-curvature="0" />
              <path
                 id="path6404"
                 style="font-style:normal;font-variant:normal;font-weight:500;font-stretch:normal;font-family:Barlow;-inkscape-font-specification:'Barlow Medium';letter-spacing:3.99681807px;fill:#ffffff;stroke-width:3.32652569"
                 d="m -624.9887,794.77154 q -0.14,0.084 0,0.168 2.968,1.26 2.968,4.676 0,2.576 -1.708,3.976 -1.708,1.4 -4.452,1.4 h -6.972 q -0.28,0 -0.28,-0.28 v -19.04 q 0,-0.28 0.28,-0.28 h 6.748 q 2.912,0 4.508,1.344 1.624,1.316 1.624,3.864 0,3.024 -2.716,4.172 z m -7.644,-7.056 q -0.112,0 -0.112,0.112 v 5.908 q 0,0.112 0.112,0.112 h 4.228 q 1.624,0 2.548,-0.812 0.952,-0.812 0.952,-2.212 0,-1.428 -0.952,-2.268 -0.924,-0.84 -2.548,-0.84 z m 4.452,14.924 q 1.596,0 2.52,-0.868 0.952,-0.896 0.952,-2.408 0,-1.512 -0.952,-2.38 -0.952,-0.896 -2.604,-0.896 h -4.368 q -0.112,0 -0.112,0.112 v 6.328 q 0,0.112 0.112,0.112 z"
                 inkscape:connector-curvature="0" />
              <path
                 id="path6406"
                 style="font-style:normal;font-variant:normal;font-weight:500;font-stretch:normal;font-family:Barlow;-inkscape-font-specification:'Barlow Medium';letter-spacing:3.99681807px;fill:#ffffff;stroke-width:3.32652569"
                 d="m -613.68392,804.99154 q -0.28,0 -0.28,-0.28 v -19.04 q 0,-0.28 0.28,-0.28 h 2.128 q 0.28,0 0.28,0.28 v 16.884 q 0,0.112 0.112,0.112 h 9.66 q 0.28,0 0.28,0.28 v 1.764 q 0,0.28 -0.28,0.28 z"
                 inkscape:connector-curvature="0" />
              <path
                 id="path6408"
                 style="font-style:normal;font-variant:normal;font-weight:500;font-stretch:normal;font-family:Barlow;-inkscape-font-specification:'Barlow Medium';letter-spacing:3.99681807px;fill:#ffffff;stroke-width:3.32652569"
                 d="m -593.7271,804.99154 q -0.28,0 -0.28,-0.28 v -19.04 q 0,-0.28 0.28,-0.28 h 2.128 q 0.28,0 0.28,0.28 v 19.04 q 0,0.28 -0.28,0.28 z"
                 inkscape:connector-curvature="0" />
              <path
                 id="path6410"
                 style="font-style:normal;font-variant:normal;font-weight:500;font-stretch:normal;font-family:Barlow;-inkscape-font-specification:'Barlow Medium';letter-spacing:3.99681807px;fill:#ffffff;stroke-width:3.32652569"
                 d="m -576.43034,805.24354 q -2.016,0 -3.584,-0.784 -1.54,-0.812 -2.408,-2.268 -0.84,-1.484 -0.84,-3.388 v -7.252 q 0,-1.904 0.84,-3.332 0.868,-1.456 2.408,-2.24 1.568,-0.812 3.584,-0.812 2.016,0 3.556,0.784 1.54,0.756 2.38,2.156 0.868,1.4 0.868,3.248 v 0.028 q 0,0.14 -0.084,0.224 -0.084,0.084 -0.196,0.084 l -2.128,0.112 q -0.28,0 -0.28,-0.252 v -0.084 q 0,-1.792 -1.12,-2.884 -1.12,-1.092 -2.996,-1.092 -1.876,0 -3.024,1.092 -1.12,1.092 -1.12,2.884 v 7.448 q 0,1.792 1.12,2.884 1.148,1.092 3.024,1.092 1.876,0 2.996,-1.092 1.12,-1.092 1.12,-2.884 v -0.056 q 0,-0.252 0.28,-0.252 l 2.128,0.112 q 0.28,0 0.28,0.28 0,1.848 -0.868,3.276 -0.84,1.4 -2.38,2.184 -1.54,0.784 -3.556,0.784 z"
                 inkscape:connector-curvature="0" />
              <path
                 id="path6412"
                 style="font-style:normal;font-variant:normal;font-weight:500;font-stretch:normal;font-family:Barlow;-inkscape-font-specification:'Barlow Medium';letter-spacing:3.99681807px;fill:#ffffff;stroke-width:3.32652569"
                 d="m -561.45757,804.99154 q -0.28,0 -0.28,-0.28 v -19.04 q 0,-0.28 0.28,-0.28 h 2.128 q 0.28,0 0.28,0.28 v 19.04 q 0,0.28 -0.28,0.28 z"
                 inkscape:connector-curvature="0" />
              <path
                 id="path6414"
                 style="font-style:normal;font-variant:normal;font-weight:500;font-stretch:normal;font-family:Barlow;-inkscape-font-specification:'Barlow Medium';letter-spacing:3.99681807px;fill:#ffffff;stroke-width:3.32652569"
                 d="m -550.18081,804.99154 q -0.28,0 -0.28,-0.28 v -19.04 q 0,-0.28 0.28,-0.28 h 6.776 q 2.912,0 4.648,1.54 1.736,1.512 1.736,4.06 v 8.4 q 0,2.548 -1.736,4.088 -1.736,1.512 -4.648,1.512 z m 2.408,-2.436 q 0,0.112 0.112,0.112 h 4.368 q 1.624,0 2.576,-0.98 0.98,-1.008 1.008,-2.688 v -7.616 q 0,-1.68 -0.98,-2.66 -0.952,-1.008 -2.604,-1.008 h -4.368 q -0.112,0 -0.112,0.112 z"
                 inkscape:connector-curvature="0" />
              <path
                 id="path6416"
                 style="font-style:normal;font-variant:normal;font-weight:500;font-stretch:normal;font-family:Barlow;-inkscape-font-specification:'Barlow Medium';letter-spacing:3.99681807px;fill:#ffffff;stroke-width:3.32652569"
                 d="m -518.07207,804.99154 q -0.252,0 -0.336,-0.224 l -1.008,-3.276 q -0.028,-0.084 -0.112,-0.084 h -7.868 q -0.084,0 -0.112,0.084 l -1.008,3.276 q -0.084,0.224 -0.336,0.224 h -2.268 q -0.308,0 -0.224,-0.308 l 6.132,-19.068 q 0.084,-0.224 0.336,-0.224 h 2.8 q 0.252,0 0.336,0.224 l 6.188,19.068 0.028,0.112 q 0,0.196 -0.252,0.196 z m -8.736,-5.852 q -0.028,0.056 0,0.112 0.056,0.028 0.112,0.028 h 6.44 q 0.056,0 0.084,-0.028 0.056,-0.056 0.028,-0.112 l -3.248,-10.388 q -0.028,-0.056 -0.084,-0.056 -0.056,0 -0.084,0.056 z"
                 inkscape:connector-curvature="0" />
              <path
                 id="path6418"
                 style="font-style:normal;font-variant:normal;font-weight:500;font-stretch:normal;font-family:Barlow;-inkscape-font-specification:'Barlow Medium';letter-spacing:3.99681807px;fill:#ffffff;stroke-width:3.32652569"
                 d="m -508.05526,804.99154 q -0.28,0 -0.28,-0.28 v -19.04 q 0,-0.28 0.28,-0.28 h 6.776 q 2.912,0 4.648,1.54 1.736,1.512 1.736,4.06 v 8.4 q 0,2.548 -1.736,4.088 -1.736,1.512 -4.648,1.512 z m 2.408,-2.436 q 0,0.112 0.112,0.112 h 4.368 q 1.624,0 2.576,-0.98 0.98,-1.008 1.008,-2.688 v -7.616 q 0,-1.68 -0.98,-2.66 -0.952,-1.008 -2.604,-1.008 h -4.368 q -0.112,0 -0.112,0.112 z"
                 inkscape:connector-curvature="0" />
            </g>
            <path
               inkscape:connector-curvature="0"
               id="path3585"
               d="m 94.541189,215.98753 -4.29454,2.14642 14.857421,7.4287 14.85743,-7.4287 -4.29966,-2.14984 -10.56289,5.28231 z"
               style="display:inline;opacity:1;fill:#ffffff;fill-opacity:0.9;fill-rule:evenodd;stroke:none;stroke-width:0.41805154;stroke-linecap:butt;stroke-linejoin:round;stroke-miterlimit:4;stroke-dasharray:none;stroke-dashoffset:0;stroke-opacity:1;paint-order:markers fill stroke" />
            <path
               inkscape:connector-curvature="0"
               id="path3585-2"
               d="m 94.541189,220.94001 -4.29454,2.14641 14.857421,7.42871 14.85743,-7.42871 -4.29966,-2.14983 -10.56289,5.2823 z"
               style="display:inline;opacity:1;fill:#ffffff;fill-opacity:0.8;fill-rule:evenodd;stroke:none;stroke-width:0.41805154;stroke-linecap:butt;stroke-linejoin:round;stroke-miterlimit:4;stroke-dasharray:none;stroke-dashoffset:0;stroke-opacity:1;paint-order:markers fill stroke" />
            <path
               inkscape:connector-curvature="0"
               id="path3585-28"
               d="m 94.541189,225.89248 -4.29454,2.14641 14.857421,7.42871 14.85743,-7.42871 -4.29966,-2.14983 -10.56289,5.2823 z"
               style="display:inline;opacity:1;fill:#ffffff;fill-opacity:0.7;fill-rule:evenodd;stroke:none;stroke-width:0.41805154;stroke-linecap:butt;stroke-linejoin:round;stroke-miterlimit:4;stroke-dasharray:none;stroke-dashoffset:0;stroke-opacity:1;paint-order:markers fill stroke" />
            <rect
               transform="matrix(0.89442716,0.44721365,-0.89442716,0.44721365,0,0)"
               ry="0"
               y="171.28242"
               x="288.7916"
               height="16.610725"
               width="16.610725"
               id="rect1549-50-6-6-3-2-3-9-7-9-6-9-2-1-9"
               style="display:inline;opacity:1;fill:#ffffff;fill-opacity:1;fill-rule:evenodd;stroke:none;stroke-width:0.46739593;stroke-linecap:butt;stroke-linejoin:round;stroke-miterlimit:4;stroke-dasharray:none;stroke-dashoffset:0;stroke-opacity:1;paint-order:markers fill stroke" />
          </g>
        </g>
      </g>
    </g>
  </g>
</svg>
