<?xml version="1.0" encoding="UTF-8" standalone="no"?>
<!-- Created with Inkscape (http://www.inkscape.org/) -->

<svg
   xmlns:dc="http://purl.org/dc/elements/1.1/"
   xmlns:cc="http://creativecommons.org/ns#"
   xmlns:rdf="http://www.w3.org/1999/02/22-rdf-syntax-ns#"
   xmlns:svg="http://www.w3.org/2000/svg"
   xmlns="http://www.w3.org/2000/svg"
   xmlns:sodipodi="http://sodipodi.sourceforge.net/DTD/sodipodi-0.dtd"
   xmlns:inkscape="http://www.inkscape.org/namespaces/inkscape"
   width="17.197916mm"
   height="4.2324152mm"
   viewBox="0 0 17.197916 4.2324153"
   version="1.1"
   id="svg81"
   inkscape:version="0.92.5 (2060ec1f9f, 2020-04-08)"
   sodipodi:docname="powered-by.svg"
   inkscape:export-filename="/home/david/Escritorio/TRABAJOS/developersba.com/MATERIAL/DISEÑO/BRAND/logo_email.png"
   inkscape:export-xdpi="100"
   inkscape:export-ydpi="100">
  <defs
     id="defs75" />
  <sodipodi:namedview
     id="base"
     pagecolor="#ffffff"
     bordercolor="#666666"
     borderopacity="1.0"
     inkscape:pageopacity="0.0"
     inkscape:pageshadow="2"
     inkscape:zoom="3.959798"
     inkscape:cx="97.701792"
     inkscape:cy="8.9816161"
     inkscape:document-units="mm"
     inkscape:current-layer="g74"
     showgrid="false"
     fit-margin-top="0"
     fit-margin-left="0"
     fit-margin-right="0"
     fit-margin-bottom="0"
     inkscape:window-width="1366"
     inkscape:window-height="648"
     inkscape:window-x="0"
     inkscape:window-y="27"
     inkscape:window-maximized="1" />
  <metadata
     id="metadata78">
    <rdf:RDF>
      <cc:Work
         rdf:about="">
        <dc:format>image/svg+xml</dc:format>
        <dc:type
           rdf:resource="http://purl.org/dc/dcmitype/StillImage" />
        <dc:title></dc:title>
      </cc:Work>
    </rdf:RDF>
  </metadata>
  <g
     inkscape:label="Capa 1"
     inkscape:groupmode="layer"
     id="layer1"
     transform="translate(-44.412206,-195.67795)">
    <g
       style="font-style:normal;font-variant:normal;font-weight:bold;font-stretch:normal;font-size:2.39430404px;line-height:1.25;font-family:Altis-Bold;-inkscape-font-specification:'Altis-Bold, Bold';font-variant-ligatures:normal;font-variant-caps:normal;font-variant-numeric:normal;font-feature-settings:normal;text-align:start;writing-mode:lr-tb;text-anchor:start;display:inline;opacity:1;fill:#666666;fill-opacity:1;fill-rule:evenodd;stroke:#ff0001;stroke-width:0.02584551;stroke-linecap:butt;stroke-miterlimit:10;stroke-dasharray:none;stroke-dashoffset:0;stroke-opacity:1;paint-order:normal"
       id="g74"
       transform="matrix(0.95138071,0,0,0.95138071,-112.12498,4.1287122)">
      <g
         id="g26"
         transform="matrix(0.43333332,0,0,0.43333332,93.237551,116.61256)">
        <path
           transform="translate(2.1091231e-6)"
           inkscape:connector-curvature="0"
           id="path4260-9-9-8-8-3-3-9-3-1-0-5-8-6-6-8-3-2-41"
           style="font-style:normal;font-variant:normal;font-weight:500;font-stretch:normal;font-size:37.58320999px;line-height:1.25;font-family:Poppins;-inkscape-font-specification:'Poppins Medium';font-variant-ligatures:normal;font-variant-caps:normal;font-variant-numeric:normal;font-feature-settings:normal;text-align:start;writing-mode:lr-tb;text-anchor:start;display:inline;fill:#3f5efb;fill-opacity:1;fill-rule:evenodd;stroke:none;stroke-width:0.10005684;stroke-linecap:butt;stroke-miterlimit:10;stroke-dasharray:none;stroke-dashoffset:0;stroke-opacity:1;paint-order:normal"
           d="m 200.00269,195.56898 -2.42035,10.21789 h -2.55799 l 2.41194,-10.21789 z"
           sodipodi:nodetypes="ccccc" />
        <g
           aria-label="&lt;"
           style="font-style:normal;font-variant:normal;font-weight:bold;font-stretch:normal;font-size:200.74188232px;line-height:1.25;font-family:Altis-Bold;-inkscape-font-specification:'Altis-Bold, Bold';font-variant-ligatures:normal;font-variant-caps:normal;font-variant-numeric:normal;font-feature-settings:normal;text-align:start;writing-mode:lr-tb;text-anchor:start;display:inline;opacity:1;fill:#3f5efb;fill-opacity:1;fill-rule:evenodd;stroke:#ff0001;stroke-width:0.61443919;stroke-linecap:butt;stroke-miterlimit:10;stroke-dasharray:none;stroke-dashoffset:0;stroke-opacity:1;paint-order:normal"
           id="text2166-4-1-4-7-4-9-6-2-2-4-2-6-2-4-6-1-3-8-1-4-5-2-6-4-8-1-2-6-3-6-7"
           transform="matrix(0.0758457,0,0,0.0758457,191.78107,175.42026)">
          <path
             d="m -318.45524,382.60356 -40.75061,-44.36395 40.75061,-44.36396 h 43.1595 l -40.95134,44.36396 40.95134,44.36395 z"
             style="font-style:normal;font-variant:normal;font-weight:bold;font-stretch:normal;font-family:Poppins;-inkscape-font-specification:'Poppins Bold';fill:#3f5efb;fill-opacity:1;stroke:none;stroke-width:0.61443919"
             id="path3054-9-9-1-2-0-7-9-7-1-7-1-6-7-3-7-4-5-6-8-3-4-1"
             inkscape:connector-curvature="0" />
        </g>
        <g
           aria-label="&lt;"
           style="font-style:normal;font-variant:normal;font-weight:bold;font-stretch:normal;font-size:200.74188232px;line-height:1.25;font-family:Altis-Bold;-inkscape-font-specification:'Altis-Bold, Bold';font-variant-ligatures:normal;font-variant-caps:normal;font-variant-numeric:normal;font-feature-settings:normal;text-align:start;writing-mode:lr-tb;text-anchor:start;display:inline;opacity:1;fill:#3f5efb;fill-opacity:1;fill-rule:evenodd;stroke:#ff0001;stroke-width:0.61443919;stroke-linecap:butt;stroke-miterlimit:10;stroke-dasharray:none;stroke-dashoffset:0;stroke-opacity:1;paint-order:normal"
           id="text2166-4-1-4-7-4-9-6-2-2-4-2-6-2-4-6-1-3-8-1-0-5-2-0-2-4-3-9-1-8-7-5-1"
           transform="matrix(-0.0758457,0,0,0.0758457,179.00832,175.42026)">
          <path
             d="m -318.45524,382.60356 -40.75061,-44.36395 40.75061,-44.36396 h 43.1595 l -40.95134,44.36396 40.95134,44.36395 z"
             style="font-style:normal;font-variant:normal;font-weight:bold;font-stretch:normal;font-family:Poppins;-inkscape-font-specification:'Poppins Bold';fill:#3f5efb;fill-opacity:1;stroke:none;stroke-width:0.61443919"
             id="path3054-9-9-1-2-0-7-9-7-1-7-6-4-9-9-0-4-1-4-8-4-3-2-1"
             inkscape:connector-curvature="0" />
        </g>
        <g
           transform="translate(2.1091231e-6)"
           aria-label="dba"
           style="font-style:normal;font-variant:normal;font-weight:bold;font-stretch:normal;font-size:12.04977512px;line-height:1.25;font-family:Altis-Bold;-inkscape-font-specification:'Altis-Bold, Bold';font-variant-ligatures:normal;font-variant-caps:normal;font-variant-numeric:normal;font-feature-settings:normal;text-align:start;writing-mode:lr-tb;text-anchor:start;display:inline;opacity:1;fill:#ffffff;fill-opacity:1;fill-rule:evenodd;stroke:#ff0001;stroke-width:0.13242444;stroke-linecap:butt;stroke-miterlimit:10;stroke-dasharray:none;stroke-dashoffset:0;stroke-opacity:1;paint-order:normal"
           id="text2166-3-7-9-6-01-3-6-3-4-9-7-3-2-0-7">
          <path
             d="m 171.12188,201.06352 q 0,-1.03628 0.38559,-1.81952 0.39764,-0.78323 1.07243,-1.20498 0.67479,-0.42174 1.50622,-0.42174 0.66274,0 1.20498,0.27715 0.55429,0.27714 0.86758,0.74708 v -3.12089 h 2.06052 v 8.91683 h -2.06052 v -0.96398 q -0.28919,0.48199 -0.83143,0.77119 -0.53019,0.28919 -1.24113,0.28919 -0.83143,0 -1.50622,-0.42174 -0.67479,-0.43379 -1.07243,-1.21703 -0.38559,-0.79528 -0.38559,-1.83156 z m 5.0368,0.012 q 0,-0.77119 -0.43379,-1.21703 -0.42174,-0.44584 -1.03628,-0.44584 -0.61454,0 -1.04833,0.44584 -0.42174,0.43379 -0.42174,1.20498 0,0.77118 0.42174,1.22907 0.43379,0.44585 1.04833,0.44585 0.61454,0 1.03628,-0.44585 0.43379,-0.44584 0.43379,-1.21702 z"
             style="font-style:normal;font-variant:normal;font-weight:bold;font-stretch:normal;font-family:Poppins;-inkscape-font-specification:'Poppins Bold';fill:#ffffff;fill-opacity:1;stroke:none;stroke-width:0.13242444"
             id="path8518"
             inkscape:connector-curvature="0" />
          <path
             d="m 181.77387,198.66561 q 0.28919,-0.46994 0.83143,-0.75913 0.54224,-0.2892 1.24113,-0.2892 0.83143,0 1.50622,0.42174 0.67479,0.42175 1.06038,1.20498 0.39764,0.78324 0.39764,1.81952 0,1.03628 -0.39764,1.83156 -0.38559,0.78324 -1.06038,1.21703 -0.67479,0.42174 -1.50622,0.42174 -0.71094,0 -1.24113,-0.27714 -0.53019,-0.2892 -0.83143,-0.75914 v 0.93988 h -2.06051 v -8.91683 h 2.06051 z m 2.94014,2.39791 q 0,-0.77119 -0.43379,-1.20498 -0.42174,-0.44584 -1.04833,-0.44584 -0.61454,0 -1.04833,0.44584 -0.42174,0.44584 -0.42174,1.21703 0,0.77118 0.42174,1.21702 0.43379,0.44585 1.04833,0.44585 0.61454,0 1.04833,-0.44585 0.43379,-0.45789 0.43379,-1.22907 z"
             style="font-style:normal;font-variant:normal;font-weight:bold;font-stretch:normal;font-family:Poppins;-inkscape-font-specification:'Poppins Bold';fill:#ffffff;fill-opacity:1;stroke:none;stroke-width:0.13242444"
             id="path8520"
             inkscape:connector-curvature="0" />
          <path
             d="m 187.48545,201.06352 q 0,-1.03628 0.38559,-1.81952 0.39764,-0.78323 1.07243,-1.20498 0.67479,-0.42174 1.50622,-0.42174 0.71094,0 1.24113,0.2892 0.54224,0.28919 0.83143,0.75913 v -0.95193 h 2.06052 v 6.72377 h -2.06052 v -0.95193 q -0.30124,0.46994 -0.84348,0.75914 -0.53019,0.28919 -1.24113,0.28919 -0.81938,0 -1.49417,-0.42174 -0.67479,-0.43379 -1.07243,-1.21703 -0.38559,-0.79528 -0.38559,-1.83156 z m 5.0368,0.012 q 0,-0.77119 -0.43379,-1.21703 -0.42174,-0.44584 -1.03628,-0.44584 -0.61454,0 -1.04833,0.44584 -0.42174,0.43379 -0.42174,1.20498 0,0.77118 0.42174,1.22907 0.43379,0.44585 1.04833,0.44585 0.61454,0 1.03628,-0.44585 0.43379,-0.44584 0.43379,-1.21702 z"
             style="font-style:normal;font-variant:normal;font-weight:bold;font-stretch:normal;font-family:Poppins;-inkscape-font-specification:'Poppins Bold';fill:#ffffff;fill-opacity:1;stroke:none;stroke-width:0.13242444"
             id="path8522"
             inkscape:connector-curvature="0" />
        </g>
      </g>
    </g>
  </g>
</svg>
